<?xml version="1.0" encoding="UTF-8"?>
<svg xmlns="http://www.w3.org/2000/svg" version="1.1" viewBox="0 0 500 500">
  <defs>
    <style>
      .cls-1 {
        fill-rule: evenodd;
        stroke: #000;
        stroke-miterlimit: 10;
        stroke-width: 6px;
      }
    </style>
  </defs>
  <!-- Generator: Adobe Illustrator 28.6.0, SVG Export Plug-In . SVG Version: 1.2.0 Build 709)  -->
  <g>
    <g id="Layer_1">
      <path id="path0" class="cls-1" d="M251.1,73.1c-18.3,1.8-55.6,16.4-72.8,28.9-11.8,8.3-30.8,37-39.2,58.2-10.8,27.7,1.8,54,25.7,54.2,8,0,15.8-6.1,24.4-19.3,2.7-4,7.5-10.8,10.8-15s8.8-12,12.1-17.1c19-29.5,61.4-33.6,76.8-7.5,12.3,21,3.5,45.9-23.1,64.4-16.9,11.8-34,30.4-40.3,44.3-18.2,39.1-12.4,75.4,11.8,75.2,17.7-.3,26.6-6.4,30-20.7,3.7-15.5,19.8-48.1,24.9-50.8,2.2-1.3,7.8-5.7,12.6-10.2s12.6-11,17.5-14.5c36.2-26.5,49.6-59.9,39.2-98.8-6.1-22.3-38.6-55.3-63.3-63.8-17.2-6.1-34.6-8.8-47.3-7.5M231.2,354.6c-21.4,5.1-33,37.8-20.6,57.4,20.4,31.7,75.2,9.9,70.1-28.1-2.9-20.6-26.9-34.9-49.7-29.5"/>
    </g>
  </g>
</svg>