<?xml version="1.0" encoding="UTF-8"?>
<svg xmlns="http://www.w3.org/2000/svg" version="1.1" viewBox="0 0 400 162.1">
  <defs>
    <style>
      .cls-1 {
        font-family: NotoSerif-Bold, 'Noto Serif';
        font-size: 27px;
        font-weight: 700;
      }

      .cls-1, .cls-2 {
        isolation: isolate;
      }

      .cls-1, .cls-3 {
        stroke: #000;
        stroke-miterlimit: 10;
      }

      .cls-3 {
        fill-rule: evenodd;
      }
    </style>
  </defs>
  <!-- Generator: Adobe Illustrator 28.6.0, SVG Export Plug-In . SVG Version: 1.2.0 Build 709)  -->
  <g>
    <g id="Layer_1">
      <g>
        <path class="cls-3" d="M318.4,68.8c35.6,27.1,64.5,49.4,64.3,49.7-.2.2-19.2-11.7-42.3-26.6-23.1-14.9-42.2-26.8-42.5-26.5-.3.3,2.5,5,6.1,10.4,10.6,15.9,12.1,18.4,11.4,18.4s-16.5-17-35.8-37.7-35.5-37.7-35.9-37.7-6.4,5.4-13.2,12.1c-14,13.7-91.2,80.3-89.2,77,.7-1.2,5.4-6.8,10.4-12.6,11.4-12.9,10.8-13.6-4-4.9-15.1,8.8-15.8,8.7-6.1-1.2l8-8.1-21.8-16.7c-12-9.2-22.5-17-23.4-17.3-1.8-.7-29.7,26.5-28.5,27.7s5.1-.2,10.5-1.3c12.6-2.6,10.8-1.2-9.8,7.7-23.3,10.1-39.9,18.5-50.4,25.6-4.9,3.3-8.8,5.7-8.8,5.3,0-1.8,82.9-70.1,85.1-70.1s12.9,7.3,27.5,16.2c14.7,8.9,27.3,16.1,28.2,16.1s20.2-14.1,43.1-31.3l41.5-31.3,5.5,4c3.1,2.2,34.6,26.2,70.2,53.3h0v-.2h-.1Z"/>
        <path class="cls-3" d="M265.6,58.4c9,12.1,16.1,21.9,15.8,21.9s-8-7.6-17.2-16.9c-19.5-19.8-16.9-18.9-24.4-8.4-5.6,7.9-5.9,5.5-.9-7,1.9-4.7,4-10.1,4.8-12.2,1.8-4.7,1.1-5.4,21.9,22.6h0Z"/>
        <path class="cls-3" d="M129.4,76c.3.7-5.2-2.6-12.2-7.2-7-4.7-13.6-8.2-14.7-7.7-8.3,3.4-8.3,3.5-.8-5.7,2-2.5,25.4,15,27.7,20.6h0Z"/>
      </g>
      <g class="cls-2">
        <g class="cls-2">
          <text class="cls-1" transform="translate(26.4 143.1)"><tspan x="0" y="0">Araratian Apex Solutions</tspan></text>
        </g>
      </g>
    </g>
  </g>
</svg>